<svg id="visual" viewBox="0 0 675 900" width="675" height="900" xmlns="http://www.w3.org/2000/svg" xmlns:xlink="http://www.w3.org/1999/xlink" version="1.1"><path d="M442 900L416.8 888.5C391.7 877 341.3 854 371.7 831C402 808 513 785 552.8 761.8C592.7 738.7 561.3 715.3 528.8 692.2C496.3 669 462.7 646 459.2 623C455.7 600 482.3 577 514 554C545.7 531 582.3 508 563.2 484.8C544 461.7 469 438.3 469.8 415.2C470.7 392 547.3 369 575.3 346C603.3 323 582.7 300 535.5 277C488.3 254 414.7 231 367.7 207.8C320.7 184.7 300.3 161.3 313 138.2C325.7 115 371.3 92 392.3 69C413.3 46 409.7 23 407.8 11.5L406 0L675 0L675 11.5C675 23 675 46 675 69C675 92 675 115 675 138.2C675 161.3 675 184.7 675 207.8C675 231 675 254 675 277C675 300 675 323 675 346C675 369 675 392 675 415.2C675 438.3 675 461.7 675 484.8C675 508 675 531 675 554C675 577 675 600 675 623C675 646 675 669 675 692.2C675 715.3 675 738.7 675 761.8C675 785 675 808 675 831C675 854 675 877 675 888.5L675 900Z" fill="#18FFBD" stroke-linecap="round" stroke-linejoin="miter"></path></svg>