<svg id="visual" viewBox="0 0 900 600" width="900" height="600" xmlns="http://www.w3.org/2000/svg" xmlns:xlink="http://www.w3.org/1999/xlink" version="1.1"><path d="M0 162L21.5 162.8C43 163.7 86 165.3 128.8 171.8C171.7 178.3 214.3 189.7 257.2 193.2C300 196.7 343 192.3 385.8 195.8C428.7 199.3 471.3 210.7 514.2 214.5C557 218.3 600 214.7 642.8 213.5C685.7 212.3 728.3 213.7 771.2 208.3C814 203 857 191 878.5 185L900 179L900 0L878.5 0C857 0 814 0 771.2 0C728.3 0 685.7 0 642.8 0C600 0 557 0 514.2 0C471.3 0 428.7 0 385.8 0C343 0 300 0 257.2 0C214.3 0 171.7 0 128.8 0C86 0 43 0 21.5 0L0 0Z" fill="#131911"></path><path d="M0 173L21.5 176.7C43 180.3 86 187.7 128.8 186.7C171.7 185.7 214.3 176.3 257.2 172.7C300 169 343 171 385.8 170.2C428.7 169.3 471.3 165.7 514.2 157C557 148.3 600 134.7 642.8 135C685.7 135.3 728.3 149.7 771.2 155.3C814 161 857 158 878.5 156.5L900 155L900 0L878.5 0C857 0 814 0 771.2 0C728.3 0 685.7 0 642.8 0C600 0 557 0 514.2 0C471.3 0 428.7 0 385.8 0C343 0 300 0 257.2 0C214.3 0 171.7 0 128.8 0C86 0 43 0 21.5 0L0 0Z" fill="#1c301d"></path><path d="M0 151L21.5 147.2C43 143.3 86 135.7 128.8 133.5C171.7 131.3 214.3 134.7 257.2 133.7C300 132.7 343 127.3 385.8 125.8C428.7 124.3 471.3 126.7 514.2 129.3C557 132 600 135 642.8 139.8C685.7 144.7 728.3 151.3 771.2 145.3C814 139.3 857 120.7 878.5 111.3L900 102L900 0L878.5 0C857 0 814 0 771.2 0C728.3 0 685.7 0 642.8 0C600 0 557 0 514.2 0C471.3 0 428.7 0 385.8 0C343 0 300 0 257.2 0C214.3 0 171.7 0 128.8 0C86 0 43 0 21.5 0L0 0Z" fill="#214a2a"></path><path d="M0 113L21.5 110C43 107 86 101 128.8 92.2C171.7 83.3 214.3 71.7 257.2 73.8C300 76 343 92 385.8 96.3C428.7 100.7 471.3 93.3 514.2 94.5C557 95.7 600 105.3 642.8 108C685.7 110.7 728.3 106.3 771.2 98.7C814 91 857 80 878.5 74.5L900 69L900 0L878.5 0C857 0 814 0 771.2 0C728.3 0 685.7 0 642.8 0C600 0 557 0 514.2 0C471.3 0 428.7 0 385.8 0C343 0 300 0 257.2 0C214.3 0 171.7 0 128.8 0C86 0 43 0 21.5 0L0 0Z" fill="#1e663a"></path><path d="M0 54L21.5 56.7C43 59.3 86 64.7 128.8 66.8C171.7 69 214.3 68 257.2 66.8C300 65.7 343 64.3 385.8 59.8C428.7 55.3 471.3 47.7 514.2 48.7C557 49.7 600 59.3 642.8 59.3C685.7 59.3 728.3 49.7 771.2 43.5C814 37.3 857 34.7 878.5 33.3L900 32L900 0L878.5 0C857 0 814 0 771.2 0C728.3 0 685.7 0 642.8 0C600 0 557 0 514.2 0C471.3 0 428.7 0 385.8 0C343 0 300 0 257.2 0C214.3 0 171.7 0 128.8 0C86 0 43 0 21.5 0L0 0Z" fill="#03834d"></path></svg>