<svg id="visual" viewBox="0 0 900 600" width="900" height="600" xmlns="http://www.w3.org/2000/svg" xmlns:xlink="http://www.w3.org/1999/xlink" version="1.1"><path d="M491 0L463.5 20C436 40 381 80 375.7 120C370.3 160 414.7 200 404.2 240C393.7 280 328.3 320 312.3 360C296.3 400 329.7 440 380.8 480C432 520 501 560 535.5 580L570 600L0 600L0 580C0 560 0 520 0 480C0 440 0 400 0 360C0 320 0 280 0 240C0 200 0 160 0 120C0 80 0 40 0 20L0 0Z" fill="#18FFBD"  strokeLinecap="round" strokeLinejoin="miter"></path></svg>