<svg id="visual" viewBox="0 0 900 600" width="900" height="600" xmlns="http://www.w3.org/2000/svg" xmlns:xlink="http://www.w3.org/1999/xlink" version="1.1">
<path d="M124 0L140.2 14.3C156.3 28.7 188.7 57.3 213.8 85.8C239 114.3 257 142.7 258.5 171.2C260 199.7 245 228.3 229.7 257C214.3 285.7 198.7 314.3 209.3 343C220 371.7 257 400.3 276.5 428.8C296 457.3 298 485.7 301.2 514.2C304.3 542.7 308.7 571.3 310.8 585.7L313 600L0 600L0 585.7C0 571.3 0 542.7 0 514.2C0 485.7 0 457.3 0 428.8C0 400.3 0 371.7 0 343C0 314.3 0 285.7 0 257C0 228.3 0 199.7 0 171.2C0 142.7 0 114.3 0 85.8C0 57.3 0 28.7 0 14.3L0 0Z" fill="#03834D" stroke-linecap="round" stroke-linejoin="miter"></path></svg>