<svg id="visual" viewBox="0 0 1224 460" width="1224" height="460" xmlns="http://www.w3.org/2000/svg" xmlns:xlink="http://www.w3.org/1999/xlink" version="1.1"><path d="M0 342L29.2 340.8C58.3 339.7 116.7 337.3 175 343C233.3 348.7 291.7 362.3 350 369.3C408.3 376.3 466.7 376.7 524.8 370.3C583 364 641 351 699.2 340.2C757.3 329.3 815.7 320.7 874 317.8C932.3 315 990.7 318 1049 329.7C1107.3 341.3 1165.7 361.7 1194.8 371.8L1224 382L1224 461L1194.8 461C1165.7 461 1107.3 461 1049 461C990.7 461 932.3 461 874 461C815.7 461 757.3 461 699.2 461C641 461 583 461 524.8 461C466.7 461 408.3 461 350 461C291.7 461 233.3 461 175 461C116.7 461 58.3 461 29.2 461L0 461Z" fill="#0066FF" stroke-linecap="round" stroke-linejoin="miter"></path></svg>