<svg id="visual" viewBox="0 0 2200 600" width="2200" height="600" xmlns="http://www.w3.org/2000/svg" xmlns:xlink="http://www.w3.org/1999/xlink" version="1.1"><path d="M0 387L18.3 391C36.7 395 73.3 403 110 399C146.7 395 183.3 379 220 364.2C256.7 349.3 293.3 335.7 330 340.8C366.7 346 403.3 370 440 390.8C476.7 411.7 513.3 429.3 550 423.3C586.7 417.3 623.3 387.7 660 371C696.7 354.3 733.3 350.7 770 353C806.7 355.3 843.3 363.7 880 385.3C916.7 407 953.3 442 990 451.8C1026.7 461.7 1063.3 446.3 1100 430.8C1136.7 415.3 1173.3 399.7 1210 389.5C1246.7 379.3 1283.3 374.7 1320 384.5C1356.7 394.3 1393.3 418.7 1430 412C1466.7 405.3 1503.3 367.7 1540 375.5C1576.7 383.3 1613.3 436.7 1650 431.3C1686.7 426 1723.3 362 1760 344.5C1796.7 327 1833.3 356 1870 357.8C1906.7 359.7 1943.3 334.3 1980 343.7C2016.7 353 2053.3 397 2090 408C2126.7 419 2163.3 397 2181.7 386L2200 375L2200 601L2181.7 601C2163.3 601 2126.7 601 2090 601C2053.3 601 2016.7 601 1980 601C1943.3 601 1906.7 601 1870 601C1833.3 601 1796.7 601 1760 601C1723.3 601 1686.7 601 1650 601C1613.3 601 1576.7 601 1540 601C1503.3 601 1466.7 601 1430 601C1393.3 601 1356.7 601 1320 601C1283.3 601 1246.7 601 1210 601C1173.3 601 1136.7 601 1100 601C1063.3 601 1026.7 601 990 601C953.3 601 916.7 601 880 601C843.3 601 806.7 601 770 601C733.3 601 696.7 601 660 601C623.3 601 586.7 601 550 601C513.3 601 476.7 601 440 601C403.3 601 366.7 601 330 601C293.3 601 256.7 601 220 601C183.3 601 146.7 601 110 601C73.3 601 36.7 601 18.3 601L0 601Z" fill="#18FFBD" strokeLinecap="round" strokeLinejoin="miter"></path></svg>