<svg id="visual"  viewBox="0 0 900 600" width="900" height="600" xmlns="http://www.w3.org/2000/svg" xmlns:xlink="http://www.w3.org/1999/xlink" version="1.1">
<defs>
    <linearGradient id="gradient">
      <stop offset="5%" stop-color="#03834D" />
      <stop offset="95%" stop-color="#131911" />
    </linearGradient>
  </defs>
<path d="M0 114L21.5 119.3C43 124.7 86 135.3 128.8 145.2C171.7 155 214.3 164 257.2 153.8C300 143.7 343 114.3 385.8 114.5C428.7 114.7 471.3 144.3 514.2 162.7C557 181 600 188 642.8 182C685.7 176 728.3 157 771.2 139.2C814 121.3 857 104.7 878.5 96.3L900 88L900 0L878.5 0C857 0 814 0 771.2 0C728.3 0 685.7 0 642.8 0C600 0 557 0 514.2 0C471.3 0 428.7 0 385.8 0C343 0 300 0 257.2 0C214.3 0 171.7 0 128.8 0C86 0 43 0 21.5 0L0 0Z" fill="url(#gradient)" stroke-linecap="round" stroke-linejoin="miter"></path></svg>