<svg id="visual" viewBox="0 0 2200 600" width="2200" height="600" xmlns="http://www.w3.org/2000/svg" xmlns:xlink="http://www.w3.org/1999/xlink" version="1.1"><path d="M0 377L18.3 394.2C36.7 411.3 73.3 445.7 110 454.2C146.7 462.7 183.3 445.3 220 439.3C256.7 433.3 293.3 438.7 330 429.5C366.7 420.3 403.3 396.7 440 378C476.7 359.3 513.3 345.7 550 347.7C586.7 349.7 623.3 367.3 660 389.2C696.7 411 733.3 437 770 424.3C806.7 411.7 843.3 360.3 880 348C916.7 335.7 953.3 362.3 990 368.7C1026.7 375 1063.3 361 1100 378.3C1136.7 395.7 1173.3 444.3 1210 465.7C1246.7 487 1283.3 481 1320 469.2C1356.7 457.3 1393.3 439.7 1430 439C1466.7 438.3 1503.3 454.7 1540 461.2C1576.7 467.7 1613.3 464.3 1650 455.3C1686.7 446.3 1723.3 431.7 1760 407.5C1796.7 383.3 1833.3 349.7 1870 347C1906.7 344.3 1943.3 372.7 1980 391.2C2016.7 409.7 2053.3 418.3 2090 404.3C2126.7 390.3 2163.3 353.7 2181.7 335.3L2200 317L2200 601L2181.7 601C2163.3 601 2126.7 601 2090 601C2053.3 601 2016.7 601 1980 601C1943.3 601 1906.7 601 1870 601C1833.3 601 1796.7 601 1760 601C1723.3 601 1686.7 601 1650 601C1613.3 601 1576.7 601 1540 601C1503.3 601 1466.7 601 1430 601C1393.3 601 1356.7 601 1320 601C1283.3 601 1246.7 601 1210 601C1173.3 601 1136.7 601 1100 601C1063.3 601 1026.7 601 990 601C953.3 601 916.7 601 880 601C843.3 601 806.7 601 770 601C733.3 601 696.7 601 660 601C623.3 601 586.7 601 550 601C513.3 601 476.7 601 440 601C403.3 601 366.7 601 330 601C293.3 601 256.7 601 220 601C183.3 601 146.7 601 110 601C73.3 601 36.7 601 18.3 601L0 601Z" fill="white" strokeLinecap="round" strokeLinejoin="miter"></path></svg>