<svg id="visual" viewBox="0 0 2200 600" width="2200" height="600" xmlns="http://www.w3.org/2000/svg" xmlns:xlink="http://www.w3.org/1999/xlink" version="1.1"><path d="M0 446L11.8 407C23.7 368 47.3 290 71 243C94.7 196 118.3 180 142 211.5C165.7 243 189.3 322 213 370.2C236.7 418.3 260.3 435.7 284 416.8C307.7 398 331.3 343 355 325.2C378.7 307.3 402.3 326.7 426 304.3C449.7 282 473.3 218 497 228.8C520.7 239.7 544.3 325.3 568 354.5C591.7 383.7 615.3 356.3 639 326.3C662.7 296.3 686.3 263.7 710 244.8C733.7 226 757.3 221 781 255.2C804.7 289.3 828.3 362.7 852 406.2C875.7 449.7 899.3 463.3 923 448.7C946.7 434 970.3 391 994 363.5C1017.7 336 1041.3 324 1064.8 333.7C1088.3 343.3 1111.7 374.7 1135.2 363.2C1158.7 351.7 1182.3 297.3 1206 276.2C1229.7 255 1253.3 267 1277 260.8C1300.7 254.7 1324.3 230.3 1348 240.8C1371.7 251.3 1395.3 296.7 1419 319.8C1442.7 343 1466.3 344 1490 318.2C1513.7 292.3 1537.3 239.7 1561 244C1584.7 248.3 1608.3 309.7 1632 345.3C1655.7 381 1679.3 391 1703 350C1726.7 309 1750.3 217 1774 190.7C1797.7 164.3 1821.3 203.7 1845 247.8C1868.7 292 1892.3 341 1916 363.7C1939.7 386.3 1963.3 382.7 1987 362.5C2010.7 342.3 2034.3 305.7 2058 288.8C2081.7 272 2105.3 275 2129 258.5C2152.7 242 2176.3 206 2188.2 188L2200 170L2200 601L2188.2 601C2176.3 601 2152.7 601 2129 601C2105.3 601 2081.7 601 2058 601C2034.3 601 2010.7 601 1987 601C1963.3 601 1939.7 601 1916 601C1892.3 601 1868.7 601 1845 601C1821.3 601 1797.7 601 1774 601C1750.3 601 1726.7 601 1703 601C1679.3 601 1655.7 601 1632 601C1608.3 601 1584.7 601 1561 601C1537.3 601 1513.7 601 1490 601C1466.3 601 1442.7 601 1419 601C1395.3 601 1371.7 601 1348 601C1324.3 601 1300.7 601 1277 601C1253.3 601 1229.7 601 1206 601C1182.3 601 1158.7 601 1135.2 601C1111.7 601 1088.3 601 1064.8 601C1041.3 601 1017.7 601 994 601C970.3 601 946.7 601 923 601C899.3 601 875.7 601 852 601C828.3 601 804.7 601 781 601C757.3 601 733.7 601 710 601C686.3 601 662.7 601 639 601C615.3 601 591.7 601 568 601C544.3 601 520.7 601 497 601C473.3 601 449.7 601 426 601C402.3 601 378.7 601 355 601C331.3 601 307.7 601 284 601C260.3 601 236.7 601 213 601C189.3 601 165.7 601 142 601C118.3 601 94.7 601 71 601C47.3 601 23.7 601 11.8 601L0 601Z" fill="black" strokeLinecap="round" strokeLinejoin="miter"></path></svg>