<svg id="visual" viewBox="0 0 900 600" width="900" height="600" xmlns="http://www.w3.org/2000/svg" xmlns:xlink="http://www.w3.org/1999/xlink" version="1.1"><path d="M287 0L321.2 20C355.3 40 423.7 80 443.7 120C463.7 160 435.3 200 423.3 240C411.3 280 415.7 320 457.3 360C499 400 578 440 606.3 480C634.7 520 612.3 560 601.2 580L590 600L0 600L0 580C0 560 0 520 0 480C0 440 0 400 0 360C0 320 0 280 0 240C0 200 0 160 0 120C0 80 0 40 0 20L0 0Z" fill="#03834D" stroke-linecap="round" stroke-linejoin="miter"></path></svg>