<svg id="visual" viewBox="0 0 1625 460" width="1625" height="460" xmlns="http://www.w3.org/2000/svg" xmlns:xlink="http://www.w3.org/1999/xlink" version="1.1"><path d="M0 236L22.5 245.2C45 254.3 90 272.7 135.2 283.3C180.3 294 225.7 297 270.8 249.5C316 202 361 104 406.2 62.8C451.3 21.7 496.7 37.3 541.8 86.5C587 135.7 632 218.3 677.2 227.7C722.3 237 767.7 173 812.8 183.7C858 194.3 903 279.7 948 295.7C993 311.7 1038 258.3 1083.2 235.2C1128.3 212 1173.7 219 1218.8 200.5C1264 182 1309 138 1354.2 175.7C1399.3 213.3 1444.7 332.7 1489.8 364.2C1535 395.7 1580 339.3 1602.5 311.2L1625 283L1625 0L1602.5 0C1580 0 1535 0 1489.8 0C1444.7 0 1399.3 0 1354.2 0C1309 0 1264 0 1218.8 0C1173.7 0 1128.3 0 1083.2 0C1038 0 993 0 948 0C903 0 858 0 812.8 0C767.7 0 722.3 0 677.2 0C632 0 587 0 541.8 0C496.7 0 451.3 0 406.2 0C361 0 316 0 270.8 0C225.7 0 180.3 0 135.2 0C90 0 45 0 22.5 0L0 0Z" fill="#18FFBD" strokeLinecap="round" strokeLinejoin="miter"></path></svg>