<svg id="visual" viewBox="0 0 900 600" width="900" height="600" xmlns="http://www.w3.org/2000/svg" xmlns:xlink="http://www.w3.org/1999/xlink" version="1.1"><path d="M429 0L431.3 12.5C433.7 25 438.3 50 449.5 75C460.7 100 478.3 125 472.7 150C467 175 438 200 426.8 225C415.7 250 422.3 275 441.3 300C460.3 325 491.7 350 503.2 375C514.7 400 506.3 425 484.8 450C463.3 475 428.7 500 431.8 525C435 550 476 575 496.5 587.5L517 600L0 600L0 587.5C0 575 0 550 0 525C0 500 0 475 0 450C0 425 0 400 0 375C0 350 0 325 0 300C0 275 0 250 0 225C0 200 0 175 0 150C0 125 0 100 0 75C0 50 0 25 0 12.5L0 0Z" fill="#18FFBD" strokeLinecap="round" strokeLinejoin="miter"></path></svg>