<svg id="visual" viewBox="0 0 900 600" width="900" height="600" xmlns="http://www.w3.org/2000/svg" xmlns:xlink="http://www.w3.org/1999/xlink" version="1.1"><path d="M334 600L349.2 580C364.3 560 394.7 520 415.8 480C437 440 449 400 479.8 360C510.7 320 560.3 280 533.5 240C506.7 200 403.3 160 361.3 120C319.3 80 338.7 40 348.3 20L358 0L900 0L900 20C900 40 900 80 900 120C900 160 900 200 900 240C900 280 900 320 900 360C900 400 900 440 900 480C900 520 900 560 900 580L900 600Z" fill="#fff" stroke-linecap="round" stroke-linejoin="miter"></path></svg>